<?xml version="1.0" standalone="no"?>
<!DOCTYPE svg PUBLIC "-//W3C//DTD SVG 20010904//EN"
 "http://www.w3.org/TR/2001/REC-SVG-20010904/DTD/svg10.dtd">
<svg version="1.0" xmlns="http://www.w3.org/2000/svg"
 width="200.000000pt" height="200.000000pt" viewBox="0 0 200.000000 200.000000"
 preserveAspectRatio="xMidYMid meet">
<metadata>
Created by potrace 1.15, written by Peter Selinger 2001-2017
</metadata>
<g transform="translate(0.000000,200.000000) scale(0.100000,-0.100000)"
fill="#000000" stroke="none">
<path d="M235 1388 c-42 -24 -44 -36 -45 -226 0 -195 7 -231 53 -280 84 -90
276 -60 334 52 20 39 20 133 0 172 -32 60 -95 104 -151 104 -49 0 -66 21 -66
81 0 42 -5 55 -29 80 -31 30 -63 36 -96 17z"/>
<path d="M696 1379 l-26 -20 0 -243 c0 -241 0 -243 23 -264 34 -32 89 -30 116
4 20 25 21 39 21 250 0 237 -4 264 -47 283 -35 16 -57 14 -87 -10z"/>
<path d="M964 1230 c-47 -19 -54 -44 -54 -203 0 -144 1 -149 25 -172 35 -36
96 -35 124 1 19 24 21 40 21 179 l0 153 -31 26 c-32 27 -50 30 -85 16z"/>
<path d="M1245 1226 c-77 -34 -105 -113 -64 -185 l22 -40 -26 -21 c-29 -23
-36 -65 -17 -101 40 -73 243 -61 278 17 19 40 15 108 -8 137 -11 14 -20 29
-20 35 0 5 9 17 20 27 29 26 26 76 -5 107 -39 39 -122 50 -180 24z"/>
<path d="M1622 1233 c-36 -7 -90 -65 -97 -106 -5 -27 -2 -47 15 -82 l22 -46
-26 -20 c-28 -22 -35 -64 -16 -100 38 -69 228 -64 276 8 25 39 23 113 -5 152
l-23 32 21 23 c29 31 28 81 -4 110 -35 32 -92 42 -163 29z"/>
</g>
</svg>
